<svg width="600" height="250" viewBox="0 0 600 250" fill="none" xmlns="http://www.w3.org/2000/svg">
<rect width="600" height="250" fill="url(#paint0_linear_1_15)"/>
<g filter="url(#filter0_d_1_15)">
<path d="M251.12 133H262.12V137H246.52V110.6H251.12V133ZM279.003 125H271.003V133H282.483V137H266.403V110.6H281.683V114.6H271.003V121H279.003V125ZM309.615 137H304.615L301.615 129.32H291.655L288.935 137H284.135L294.375 110.6H298.335L309.615 137ZM292.935 125.72H300.175L296.375 116L292.935 125.72ZM319.172 125.72C318.879 125.72 318.572 125.72 318.252 125.72C317.959 125.72 317.639 125.707 317.292 125.68V137H312.692V110.6C313.119 110.573 313.599 110.547 314.132 110.52C314.692 110.493 315.252 110.48 315.812 110.48C316.372 110.453 316.892 110.44 317.372 110.44C317.879 110.413 318.279 110.4 318.572 110.4C321.985 110.4 324.585 111.053 326.372 112.36C328.159 113.64 329.052 115.52 329.052 118C329.052 119.573 328.665 120.987 327.892 122.24C327.119 123.493 325.825 124.427 324.012 125.04L333.692 137H328.372L319.172 125.72ZM318.972 114.24C318.759 114.24 318.505 114.24 318.212 114.24C317.919 114.24 317.612 114.253 317.292 114.28V121.88H319.772C321.212 121.88 322.305 121.52 323.052 120.8C323.799 120.08 324.172 119.053 324.172 117.72C324.172 116.52 323.799 115.64 323.052 115.08C322.332 114.52 320.972 114.24 318.972 114.24ZM354.19 130V110.6H358.79V137H353.15L341.55 117.64V137H336.95V110.6H342.59L354.19 130ZM370.417 137H365.817V110.6H370.417V137ZM394.698 130V110.6H399.298V137H393.658L382.058 117.64V137H377.458V110.6H383.098L394.698 130ZM426.805 134.8C425.605 135.6 424.231 136.253 422.685 136.76C421.138 137.24 419.445 137.48 417.605 137.48C415.391 137.48 413.485 137.12 411.885 136.4C410.285 135.68 408.951 134.707 407.885 133.48C406.845 132.253 406.071 130.84 405.565 129.24C405.058 127.613 404.805 125.893 404.805 124.08C404.805 122.187 405.085 120.413 405.645 118.76C406.205 117.107 407.031 115.667 408.125 114.44C409.245 113.187 410.631 112.2 412.285 111.48C413.938 110.76 415.871 110.4 418.085 110.4C419.578 110.4 421.058 110.56 422.525 110.88C423.991 111.173 425.298 111.587 426.445 112.12L425.165 116.28C424.258 115.747 423.205 115.293 422.005 114.92C420.805 114.52 419.445 114.32 417.925 114.32C416.405 114.32 415.111 114.547 414.045 115C413.005 115.427 412.165 116.053 411.525 116.88C410.885 117.707 410.418 118.707 410.125 119.88C409.831 121.027 409.685 122.333 409.685 123.8C409.685 130.307 412.445 133.56 417.965 133.56C418.951 133.56 419.738 133.48 420.325 133.32C420.911 133.16 421.538 132.973 422.205 132.76V126.12H426.805V134.8ZM447.018 132.96C447.018 134.373 446.858 135.707 446.538 136.96C446.245 138.187 445.778 139.267 445.138 140.2C444.498 141.133 443.685 141.867 442.698 142.4C441.738 142.96 440.592 143.24 439.258 143.24L438.378 139.76C439.312 139.76 440.045 139.547 440.578 139.12C441.138 138.693 441.552 138.147 441.818 137.48C442.085 136.84 442.245 136.12 442.298 135.32C442.378 134.493 442.418 133.693 442.418 132.92V110.6H447.018V132.96ZM476.06 137H471.06L468.06 129.32H458.1L455.38 137H450.58L460.82 110.6H464.78L476.06 137ZM459.38 125.72H466.62L462.82 116L459.38 125.72ZM473.809 110.6H478.809L487.209 131.4L494.809 110.6H499.609L489.049 137H485.409L473.809 110.6ZM523.833 137H518.833L515.833 129.32H505.873L503.153 137H498.353L508.593 110.6H512.553L523.833 137ZM507.153 125.72H514.393L510.593 116L507.153 125.72Z" fill="white"/>
</g>
<g filter="url(#filter1_d_1_15)">
<path d="M157.617 159.12C138.425 164.482 169.294 175.559 193.732 165.089C189.729 163.533 186.858 161.738 186.858 161.738C175.961 163.798 170.906 163.96 161.014 162.83C152.85 161.895 157.617 159.12 157.617 159.12ZM190.806 148.66C176.362 151.439 168.019 151.35 157.452 150.26C149.281 149.415 154.63 145.455 154.63 145.455C133.493 152.471 166.397 160.432 195.939 151.791C192.799 150.685 190.806 148.66 190.806 148.66ZM202.125 88.085C202.126 88.085 159.394 98.754 179.802 122.272C185.826 129.207 178.222 135.442 178.222 135.442C178.222 135.442 193.511 127.551 186.491 117.665C179.932 108.45 174.904 103.872 202.125 88.085ZM212.123 169.229C212.123 169.229 215.652 172.139 208.235 174.388C194.133 178.66 149.529 179.948 137.14 174.559C132.69 172.621 141.039 169.934 143.666 169.367C146.405 168.774 147.969 168.882 147.969 168.882C143.017 165.395 115.956 175.732 134.227 178.697C184.048 186.773 225.044 175.06 212.123 169.229ZM195 138.896C197.395 137.262 200.703 135.843 200.703 135.843C200.703 135.843 191.279 137.528 181.89 138.317C170.396 139.281 158.067 139.471 151.878 138.643C137.226 136.684 159.911 131.295 159.911 131.295C159.911 131.295 151.099 130.699 140.267 135.939C127.455 142.134 171.958 144.958 195 138.896ZM200.609 154.041C200.501 154.331 200.141 154.657 200.141 154.657C231.414 146.436 219.916 125.678 204.963 130.932C203.651 131.396 202.963 132.475 202.963 132.475C202.963 132.475 203.792 132.141 205.641 131.755C213.2 130.18 224.03 141.874 200.609 154.041ZM174.181 131.069C169.567 120.64 153.921 111.516 174.188 95.51C199.459 75.563 186.492 62.587 186.492 62.587C191.722 83.195 168.041 89.42 159.493 102.254C153.672 110.999 162.35 120.396 174.181 131.069ZM201.455 182.817C182.268 186.429 158.601 186.008 144.568 183.691C144.568 183.691 147.442 186.071 162.214 187.022C184.69 188.459 219.214 186.222 220.03 175.586C220.031 175.586 218.46 179.618 201.455 182.817Z" fill="white"/>
</g>
<defs>
<filter id="filter0_d_1_15" x="242.52" y="110.4" width="285.313" height="40.84" filterUnits="userSpaceOnUse" color-interpolation-filters="sRGB">
<feFlood flood-opacity="0" result="BackgroundImageFix"/>
<feColorMatrix in="SourceAlpha" type="matrix" values="0 0 0 0 0 0 0 0 0 0 0 0 0 0 0 0 0 0 127 0" result="hardAlpha"/>
<feOffset dy="4"/>
<feGaussianBlur stdDeviation="2"/>
<feComposite in2="hardAlpha" operator="out"/>
<feColorMatrix type="matrix" values="0 0 0 0 0 0 0 0 0 0 0 0 0 0 0 0 0 0 0.25 0"/>
<feBlend mode="normal" in2="BackgroundImageFix" result="effect1_dropShadow_1_15"/>
<feBlend mode="normal" in="SourceGraphic" in2="effect1_dropShadow_1_15" result="shape"/>
</filter>
<filter id="filter1_d_1_15" x="106" y="61" width="136" height="136" filterUnits="userSpaceOnUse" color-interpolation-filters="sRGB">
<feFlood flood-opacity="0" result="BackgroundImageFix"/>
<feColorMatrix in="SourceAlpha" type="matrix" values="0 0 0 0 0 0 0 0 0 0 0 0 0 0 0 0 0 0 127 0" result="hardAlpha"/>
<feOffset dy="4"/>
<feGaussianBlur stdDeviation="2"/>
<feComposite in2="hardAlpha" operator="out"/>
<feColorMatrix type="matrix" values="0 0 0 0 0 0 0 0 0 0 0 0 0 0 0 0 0 0 0.25 0"/>
<feBlend mode="normal" in2="BackgroundImageFix" result="effect1_dropShadow_1_15"/>
<feBlend mode="normal" in="SourceGraphic" in2="effect1_dropShadow_1_15" result="shape"/>
</filter>
<linearGradient id="paint0_linear_1_15" x1="-8.9407e-06" y1="250" x2="600" y2="-3.53158e-05" gradientUnits="userSpaceOnUse">
<stop stop-color="#C12D2E" stop-opacity="0.7"/>
<stop offset="0.98" stop-color="#E53132"/>
</linearGradient>
</defs>
</svg>
